HIERARCHY
ROOT Hips
{
	OFFSET 0.000000 0.000000 0.000000
	CHANNELS 6 Xposition Yposition Zposition Zrotation Yrotation Xrotation 
	JOINT LHipJoint
	{
		OFFSET 0.000000 0.000000 0.000000
		CHANNELS 3 Zrotation Yrotation Xrotation
		JOINT LeftUpLeg
		{
			OFFSET 1.363060 -1.794630 0.839290
			CHANNELS 3 Zrotation Yrotation Xrotation
			JOINT LeftLeg
			{
				OFFSET 2.448110 -6.726130 0.000000
				CHANNELS 3 Zrotation Yrotation Xrotation
				JOINT LeftFoot
				{
					OFFSET 2.562200 -7.039590 0.000000
					CHANNELS 3 Zrotation Yrotation Xrotation
					JOINT LeftToeBase
					{
						OFFSET 0.157640 -0.433110 2.322550
						CHANNELS 3 Zrotation Yrotation Xrotation
						End Site
						{
							OFFSET 0.000000 0.000000 0.000000
						}
					}
				}
			}
		}
	}
	JOINT RHipJoint
	{
		OFFSET 0.000000 0.000000 0.000000
		CHANNELS 3 Zrotation Yrotation Xrotation
		JOINT RightUpLeg
		{
			OFFSET -1.305520 -1.794630 0.839290
			CHANNELS 3 Zrotation Yrotation Xrotation
			JOINT RightLeg
			{
				OFFSET -2.542530 -6.985550 0.000000
				CHANNELS 3 Zrotation Yrotation Xrotation
				JOINT RightFoot
				{
					OFFSET -2.568260 -7.056230 0.000000
					CHANNELS 3 Zrotation Yrotation Xrotation
					JOINT RightToeBase
					{
						OFFSET -0.164730 -0.452590 2.363150
						CHANNELS 3 Zrotation Yrotation Xrotation
						End Site
						{
							OFFSET 0.000000 0.000000 0.000000
						}
					}
				}
			}
		}
	}
	JOINT LowerBack
	{
		OFFSET 0.000000 0.000000 0.000000
		CHANNELS 3 Zrotation Yrotation Xrotation
		JOINT Spine
		{
			OFFSET 0.028270 2.035590 -0.193380
			CHANNELS 3 Zrotation Yrotation Xrotation
			JOINT Spine1
			{
				OFFSET 0.056720 2.048850 -0.042750
				CHANNELS 3 Zrotation Yrotation Xrotation
				JOINT Neck
				{
					OFFSET 0.000000 0.000000 0.000000
					CHANNELS 3 Zrotation Yrotation Xrotation
					JOINT Neck1
					{
						OFFSET -0.054170 1.746240 0.172020
						CHANNELS 3 Zrotation Yrotation Xrotation
						JOINT Head
						{
							OFFSET 0.104070 1.761360 -0.123970
							CHANNELS 3 Zrotation Yrotation Xrotation
							End Site
							{
								OFFSET 0.000000 0.000000 0.000000
							}
						}
					}
				}
				JOINT LeftShoulder
				{
					OFFSET 0.000000 0.000000 0.000000
					CHANNELS 3 Zrotation Yrotation Xrotation
					JOINT LeftArm
					{
						OFFSET 3.362410 1.200890 -0.311210
						CHANNELS 3 Zrotation Yrotation Xrotation
						JOINT LeftForeArm
						{
							OFFSET 4.983000 -0.000000 -0.000000
							CHANNELS 3 Zrotation Yrotation Xrotation
							JOINT LeftHand
							{
								OFFSET 3.483560 -0.000000 -0.000000
								CHANNELS 3 Zrotation Yrotation Xrotation
								JOINT LeftFingerBase
								{
									OFFSET 0.000000 0.000000 0.000000
									CHANNELS 3 Zrotation Yrotation Xrotation
									JOINT LeftHandIndex1
									{
										OFFSET 0.715260 -0.000000 -0.000000
										CHANNELS 3 Zrotation Yrotation Xrotation
										End Site
										{
											OFFSET 0.000000 0.000000 0.000000
										}
									}
								}
								JOINT LThumb
								{
									OFFSET 0.000000 0.000000 0.000000
									CHANNELS 3 Zrotation Yrotation Xrotation
									End Site
									{
										OFFSET 0.000000 0.000000 0.000000
									}
								}
							}
						}
					}
				}
				JOINT RightShoulder
				{
					OFFSET 0.000000 0.000000 0.000000
					CHANNELS 3 Zrotation Yrotation Xrotation
					JOINT RightArm
					{
						OFFSET -3.136600 1.374050 -0.404650
						CHANNELS 3 Zrotation Yrotation Xrotation
						JOINT RightForeArm
						{
							OFFSET -5.241900 -0.000000 -0.000000
							CHANNELS 3 Zrotation Yrotation Xrotation
							JOINT RightHand
							{
								OFFSET -3.444170 -0.000000 -0.000000
								CHANNELS 3 Zrotation Yrotation Xrotation
								JOINT RightFingerBase
								{
									OFFSET 0.000000 0.000000 0.000000
									CHANNELS 3 Zrotation Yrotation Xrotation
									JOINT RightHandIndex1
									{
										OFFSET -0.622530 -0.000000 -0.000000
										CHANNELS 3 Zrotation Yrotation Xrotation
										End Site
										{
											OFFSET 0.000000 0.000000 0.000000
										}
									}
								}
								JOINT RThumb
								{
									OFFSET 0.000000 0.000000 0.000000
									CHANNELS 3 Zrotation Yrotation Xrotation
									End Site
									{
										OFFSET 0.000000 0.000000 0.000000
									}
								}
							}
						}
					}
				}
			}
		}
	}
}
MOTION
Frames: 4
Frame Time: 0.008333
0.198887 17.167590 0.013547 -79.213627 83.888252 -64.101990 -10.784571 0.564946 5.133111 1.363652 -7.259700 -39.462759 0.795509 1.931931 55.860974 3.213207 17.192540 -13.468119 -1.418600 -0.000000 -1.593700 7.514009 -3.227870 4.564240 23.060515 2.665685 -3.988224 4.377584 2.395356 -1.722157 -0.415729 0.641768 -9.444776 -179.995300 -0.000000 -9.042500 3.574725 -0.798725 -11.160903 -0.393273 -1.726225 -5.003206 -8.300748 -1.692666 -0.061651 13.758178 -14.713702 -8.648275 -3.851231 -0.315630 -0.151446 0.000000 0.000000 0.000000 1.169285 10.799635 -0.618651 -64.517766 15.211055 17.878618 -0.594048 -78.669255 -0.016881 9.313580 -3.822683 -0.329801 -0.142913 0.194053 0.000000 0.000000 0.000000 0.000000 0.000000 0.000000 0.000000 19.933836 -7.646093 -1.220171 68.600039 7.722346 20.276092 0.052811 86.618235 -0.003502 -2.222947 5.209716 -0.110664 0.081964 -0.414052 0.000000 0.000000 0.000000 0.000000 0.000000 0.000000 0.000000 
0.415328 17.180043 0.032943 -74.089149 83.895368 -58.863305 -10.599799 0.513829 5.349078 1.333275 -7.715594 -40.321064 0.712460 1.802724 53.603452 3.290193 17.284813 -13.270960 -1.321300 -0.000000 -1.739300 7.656798 -3.252833 4.373639 22.732610 1.828107 -2.927744 4.350381 2.445483 -2.556543 -0.270609 1.083869 -8.553211 179.966700 0.000000 -8.512500 3.237633 -0.297459 -11.208018 -0.536259 -1.190971 -5.037973 -8.378939 -1.154203 -0.086052 13.736315 -14.136179 -8.605331 -3.833527 -0.314483 -0.145510 0.000000 0.000000 0.000000 1.277841 11.674309 -0.558637 -63.263381 15.707702 17.437001 -0.558620 -78.910421 -0.014143 9.172297 -3.733773 -0.316504 -0.146508 0.179847 0.000000 0.000000 0.000000 0.000000 0.000000 0.000000 0.000000 19.746983 -6.672298 -1.200827 68.802198 8.240622 20.629774 0.064344 86.943222 -0.004550 -2.353404 5.384348 -0.121060 0.082248 -0.428636 0.000000 0.000000 0.000000 0.000000 0.000000 0.000000 0.000000 
0.631937 17.190151 0.049295 -68.680604 83.832115 -53.374269 -10.455815 0.470347 5.538446 1.315714 -8.018059 -41.036425 0.629041 1.665195 51.116229 3.347520 17.297041 -12.867619 -1.151200 -0.000000 -2.112500 7.748108 -3.287201 4.178926 22.404323 1.056461 -1.886907 4.325919 2.469845 -3.230113 -0.136399 1.494187 -7.661637 179.939900 0.000000 -7.636000 2.947302 0.202788 -11.219162 -0.663194 -0.660044 -5.067352 -8.434656 -0.620733 -0.112791 13.654729 -13.529894 -8.559266 -3.807164 -0.312466 -0.138818 0.000000 0.000000 0.000000 1.327194 12.584475 -0.490250 -62.017565 16.108994 16.960324 -0.528679 -79.126303 -0.011600 9.048607 -3.663064 -0.305703 -0.150795 0.166652 0.000000 0.000000 0.000000 0.000000 0.000000 0.000000 0.000000 19.456129 -5.679330 -1.189356 68.994019 8.769470 21.024656 0.078842 87.246127 -0.005555 -2.454765 5.557490 -0.130272 0.081528 -0.442907 0.000000 0.000000 0.000000 0.000000 0.000000 0.000000 0.000000 
0.849016 17.197832 0.062848 -63.435226 83.714643 -48.076855 -10.351445 0.426989 5.701340 1.288997 -8.171732 -41.620210 0.544819 1.515773 48.414600 3.380596 17.213458 -12.270762 -0.913399 0.000001 -2.722499 7.794800 -3.337182 3.983064 22.071270 0.344222 -0.879550 4.303826 2.466376 -3.745330 -0.009896 1.888556 -6.760878 179.924100 -0.000000 -6.326300 2.695725 0.687719 -11.199169 -0.773934 -0.146945 -5.090201 -8.465595 -0.105548 -0.135771 13.517434 -12.904011 -8.514899 -3.771525 -0.309498 -0.132575 0.000000 0.000000 0.000000 1.330142 13.532144 -0.413250 -60.804480 16.409334 16.444871 -0.505363 -79.297865 -0.009228 8.945314 -3.621957 -0.298100 -0.155774 0.154665 0.000000 0.000000 0.000000 0.000000 0.000000 0.000000 0.000000 19.066376 -4.683477 -1.189204 69.178493 9.314348 21.466269 0.095684 87.524325 -0.006430 -2.513100 5.714705 -0.137005 0.079537 -0.456397 0.000000 0.000000 0.000000 0.000000 0.000000 0.000000 0.000000 
